# xmcd
#
# Track frame offsets: 
#        150
#        21475
#        41412
#        59257
#        80450
#        100992
#        122975
#        142500
#        164825
#        184067
#        206437
#        226382
#        244152
#        269360
#        295500
#        317340
#
# Disc length: 4492 seconds
#
# Revision: 0
# Processed by: cddbd v1.5.1PL0 Copyright (c) Steve Scherf et al.
# Submitted via: ExactAudioCopy v0.95a5
#
DISCID=dc118a10
DTITLE=Akiko Wada - Love Ballad Best
DYEAR=2004
DGENRE=Ballad
TTITLE0=orokana onnatachi
TTITLE1=osaka TWILIGHT
TTITLE2=wakareno yoin
TTITLE3=minami aoyama -kokoroha Close dekinai-
TTITLE4=dakare jouzu
TTITLE5=NO COMMENT
TTITLE6=yoku yarune (Ballad)
TTITLE7=Arrangement
TTITLE8=datte syouga naija nai
TTITLE9=nakazuni irarenai
TTITLE10=tokei
TTITLE11=shituren
TTITLE12=okidokei
TTITLE13=sotoha shiroi yukino yoru
TTITLE14=yajirobei
TTITLE15=ima anatani utaitai
EXTD=
EXTT0=
EXTT1=
EXTT2=
EXTT3=
EXTT4=
EXTT5=
EXTT6=
EXTT7=
EXTT8=
EXTT9=
EXTT10=
EXTT11=
EXTT12=
EXTT13=
EXTT14=
EXTT15=
PLAYORDER=
